# xmcd CD database file
#
# Track frame offsets:
#	150
#	14174
#	29073
#	43034
#
# Disc length: 803 seconds
#
# Revision: 1
# Processed by: cddbd v1.5.2PL0 Copyright (c) Steve Scherf et al.
# Submitted via: CDex 1.51
#
DISCID=34032104
DTITLE=Norah Jones - Don't Know Why (Single AUS)
DYEAR=2003
DGENRE=Jazz
TTITLE0=Don't Know Why
TTITLE1=I'll Be Your Baby Tonight
TTITLE2=Lonestar
TTITLE3=Peace
EXTD=YEAR: 2003
EXTT0=
EXTT1=
EXTT2=
EXTT3=
PLAYORDER=
